<svg xmlns="http://www.w3.org/2000/svg" xmlns:xlink="http://www.w3.org/1999/xlink" version="1.1" id="Layer_1" x="0px" y="0px" width="100px" height="100px" viewBox="0 0 100 100" enable-background="new 0 0 100 100" xml:space="preserve">
<g>
	<path fill="#000000" d="M53.707,52.526l-6.74,6.744l-6.236-6.236l6.74-6.741c1.399-1.397,1.399-3.66,0-5.055   c-1.395-1.397-3.658-1.397-5.054,0l-6.742,6.741l-4.643-4.644c-0.097,0.095-8.829,8.826-8.927,8.925   c-6.594,6.597-7.038,17.001-1.347,24.116L5.591,91.541c-0.787,0.79-0.787,2.074,0,2.866c0.792,0.791,2.079,0.791,2.87,0   l15.164-15.165c7.118,5.688,17.521,5.242,24.117-1.349c0.098-0.099,8.823-8.834,8.917-8.932l-4.639-4.636l6.744-6.744   c1.394-1.393,1.394-3.656,0-5.056C57.365,51.13,55.103,51.13,53.707,52.526z"/>
	<path fill="#000000" d="M94.404,5.593c-0.79-0.79-2.072-0.79-2.861,0L76.375,20.76c-7.113-5.691-17.52-5.246-24.112,1.348   c-0.098,0.098-8.825,8.832-8.921,8.931l4.638,4.637l5.728-5.729c1.396-1.394,3.658-1.394,5.058,0c1.394,1.396,1.394,3.662,0,5.055   l-5.731,5.73l6.235,6.233l5.73-5.729c1.396-1.394,3.654-1.394,5.054,0c1.396,1.398,1.396,3.661,0,5.059l-5.729,5.729l4.645,4.642   c0.098-0.095,8.825-8.826,8.923-8.925c6.598-6.593,7.042-17.001,1.348-24.116L94.404,8.46C95.197,7.668,95.197,6.384,94.404,5.593z   "/>
</g>
</svg>