<?xml version="1.0" encoding="utf-8"?>
<!-- Generator: Adobe Illustrator 16.0.0, SVG Export Plug-In . SVG Version: 6.00 Build 0)  -->
<!DOCTYPE svg PUBLIC "-//W3C//DTD SVG 1.1//EN" "http://www.w3.org/Graphics/SVG/1.1/DTD/svg11.dtd">
<svg version="1.1" id="Layer_1" xmlns="http://www.w3.org/2000/svg" xmlns:xlink="http://www.w3.org/1999/xlink" x="0px" y="0px"
	 width="172.644px" height="90.072px" viewBox="0 0 172.644 90.072" enable-background="new 0 0 172.644 90.072"
	 xml:space="preserve">
<path d="M42.81,42.811C19.81,42.811,0,23,0,0h1c0,23,18.81,41.811,41.81,41.811V42.811z"/>
<g>
	<path d="M86.644,85h-1c0-23-18.834-42.189-42.834-42.189v-1C66.81,41.811,86.644,61,86.644,85z"/>
	<g>
		<polygon points="80.07,84 92.218,84 86.144,90.072 		"/>
	</g>
</g>
<path d="M129.81,42.811v-1c23,0,41.834-18.811,41.834-41.811h1C172.644,23,152.81,42.811,129.81,42.811z"/>
<path d="M87,85h-1c0-24,19.811-43.189,43.811-43.189v1C105.81,42.811,87,62,87,85z"/>
</svg>
