<?xml version="1.0" encoding="utf-8"?>
<!-- Generator: Adobe Illustrator 16.0.0, SVG Export Plug-In . SVG Version: 6.00 Build 0)  -->
<!DOCTYPE svg PUBLIC "-//W3C//DTD SVG 1.1//EN" "http://www.w3.org/Graphics/SVG/1.1/DTD/svg11.dtd">
<svg version="1.1" id="Your_Icon" xmlns="http://www.w3.org/2000/svg" xmlns:xlink="http://www.w3.org/1999/xlink" x="0px" y="0px"
	 width="53.333px" height="53.333px" viewBox="24.629 7.778 53.333 53.333" enable-background="new 24.629 7.778 53.333 53.333"
	 xml:space="preserve">
<g>
	<polygon points="31.296,47.778 24.629,47.778 24.629,54.444 24.629,61.111 31.296,61.111 37.963,61.111 37.963,54.444 
		31.296,54.444 	"/>
	<rect x="24.629" y="27.778" width="6.667" height="13.333"/>
	<polygon points="71.297,54.444 64.63,54.444 64.63,61.111 71.297,61.111 77.963,61.111 77.963,54.444 77.963,47.778 71.297,47.778 
			"/>
	<rect x="71.297" y="27.778" width="6.666" height="13.333"/>
	<rect x="44.63" y="54.444" width="13.333" height="6.667"/>
	<polygon points="24.629,7.778 24.629,14.444 24.629,21.111 31.296,21.111 31.296,14.444 37.963,14.444 37.963,7.778 31.296,7.778 	
		"/>
	<rect x="44.63" y="7.778" width="13.333" height="6.667"/>
	<polygon points="71.297,7.778 64.63,7.778 64.63,14.444 71.297,14.444 71.297,21.111 77.963,21.111 77.963,14.444 77.963,7.778 	
		"/>
</g>
<polygon points="65.97,43.149 56.634,34.444 65.97,25.74 61.177,20.599 61.006,20.416 51.297,29.469 41.587,20.416 41.415,20.599 
	36.623,25.74 45.959,34.444 36.623,43.149 41.587,48.473 51.297,39.421 61.006,48.473 "/>
</svg>
