<?xml version="1.0" encoding="utf-8"?>
<!-- Generator: Adobe Illustrator 16.0.0, SVG Export Plug-In . SVG Version: 6.00 Build 0)  -->
<!DOCTYPE svg PUBLIC "-//W3C//DTD SVG 1.1//EN" "http://www.w3.org/Graphics/SVG/1.1/DTD/svg11.dtd">
<svg version="1.1" id="Your_Icon" xmlns="http://www.w3.org/2000/svg" xmlns:xlink="http://www.w3.org/1999/xlink" x="0px" y="0px"
	 width="74.024px" height="74.025px" viewBox="14.259 -2.593 74.024 74.025" enable-background="new 14.259 -2.593 74.024 74.025"
	 xml:space="preserve">
<path d="M51.271-2.593c-20.441,0-37.011,16.572-37.011,37.013c0,20.442,16.57,37.013,37.011,37.013
	c20.442,0,37.013-16.57,37.013-37.013C88.283,13.979,71.713-2.593,51.271-2.593z M55.289,58.042c0,0.75-0.611,1.363-1.362,1.363
	h-5.717c-0.75,0-1.363-0.613-1.363-1.363v-5.151c0-0.748,0.613-1.362,1.363-1.362h5.717c0.751,0,1.362,0.614,1.362,1.362V58.042z
	 M66.288,28.17c-0.339,1.153-0.792,2.146-1.356,2.984c-0.564,0.836-1.209,1.583-1.932,2.237c-0.724,0.655-1.447,1.299-2.169,1.931
	c-0.859,0.724-1.651,1.424-2.372,2.103c-0.725,0.678-1.358,1.436-1.898,2.27c-0.543,0.836-0.962,1.821-1.254,2.949
	c-0.19,0.728-0.303,1.559-0.386,2.491c-0.118,1.33-0.845,1.644-1.444,1.644s-4.467,0-4.467,0c-0.807,0-1.448-0.66-1.427-1.466
	c0,0,0.062-2.205,0.266-3.584c0.202-1.377,0.529-2.586,0.983-3.626c0.451-1.039,1.004-1.954,1.66-2.746
	c0.654-0.79,1.434-1.569,2.338-2.339c0.722-0.632,1.412-1.22,2.069-1.761c0.654-0.543,1.242-1.142,1.762-1.798
	c0.518-0.655,0.926-1.389,1.221-2.203c0.293-0.813,0.438-1.784,0.438-2.915c0-1.357-0.236-2.52-0.712-3.493
	c-0.473-0.971-1.049-1.75-1.727-2.339c-0.68-0.586-1.402-1.016-2.171-1.287s-1.446-0.407-2.034-0.407
	c-2.804,0-4.87,0.916-6.204,2.746c-1.045,1.436-1.591,3.263-1.907,5.451c-0.225,1.563-1.137,1.905-1.689,1.905
	c-0.553,0-4.666,0-4.666,0c-0.807,0-1.416-0.659-1.352-1.463c0,0,0.258-3.283,1.003-5.317c0.746-2.034,1.831-3.772,3.255-5.219
	c1.423-1.445,3.141-2.565,5.152-3.356c2.011-0.79,4.26-1.186,6.747-1.186c2.078,0,4.01,0.305,5.797,0.916
	c1.785,0.61,3.346,1.491,4.678,2.643c1.333,1.153,2.383,2.588,3.152,4.306c0.768,1.719,1.153,3.661,1.153,5.831
	C66.797,25.65,66.627,27.017,66.288,28.17z"/>
</svg>
