<?xml version="1.0" encoding="utf-8"?>
<!-- Generator: Adobe Illustrator 16.0.0, SVG Export Plug-In . SVG Version: 6.00 Build 0)  -->
<!DOCTYPE svg PUBLIC "-//W3C//DTD SVG 1.1//EN" "http://www.w3.org/Graphics/SVG/1.1/DTD/svg11.dtd">
<svg version="1.1" id="Layer_1" xmlns="http://www.w3.org/2000/svg" xmlns:xlink="http://www.w3.org/1999/xlink" x="0px" y="0px"
	 width="34.621px" height="35.311px" viewBox="0 0 34.621 35.311" enable-background="new 0 0 34.621 35.311" xml:space="preserve">
<path fill="#231F20" d="M33.256,24.734c-0.91,2.131-2.141,3.971-3.69,5.521s-3.39,2.78-5.521,3.69
	c-2.129,0.91-4.375,1.365-6.734,1.365c-2.36,0-4.605-0.455-6.734-1.365c-2.131-0.91-3.971-2.141-5.521-3.69s-2.78-3.39-3.69-5.521
	C0.455,22.605,0,20.36,0,18c0-2.36,0.455-4.605,1.365-6.735c0.91-2.13,2.141-3.97,3.69-5.52s3.39-2.78,5.521-3.69
	c2.129-0.91,4.374-1.365,6.734-1.365c3.96,0,7.51,1.22,10.65,3.66L32.311,0v12h-12l4.38-4.38c-2.2-1.62-4.66-2.43-7.38-2.43
	c-3.54,0-6.561,1.25-9.061,3.75C5.75,11.44,4.5,14.46,4.5,18s1.25,6.561,3.75,9.061s5.521,3.75,9.061,3.75s6.56-1.25,9.061-3.75
	c2.5-2.5,3.75-5.521,3.75-9.061h4.5C34.621,20.36,34.166,22.605,33.256,24.734z"/>
</svg>
