<?xml version="1.0" encoding="utf-8"?>
<!-- Generator: Adobe Illustrator 16.0.0, SVG Export Plug-In . SVG Version: 6.00 Build 0)  -->
<!DOCTYPE svg PUBLIC "-//W3C//DTD SVG 1.1//EN" "http://www.w3.org/Graphics/SVG/1.1/DTD/svg11.dtd">
<svg version="1.1" id="Layer_1" xmlns="http://www.w3.org/2000/svg" xmlns:xlink="http://www.w3.org/1999/xlink" x="0px" y="0px"
	 width="23.704px" height="23.704px" viewBox="4.563 -0.83 23.704 23.704" enable-background="new 4.563 -0.83 23.704 23.704"
	 xml:space="preserve">
<path d="M28.267-0.83v8.886l-2.962-2.963l-4.442,4.444l-2.963-2.96l4.444-4.453L19.381-0.83H28.267z M11.973,12.501l-4.446,4.444
	l-2.964-2.963v8.892h8.892l-2.963-2.957l4.445-4.45L11.973,12.501z M20.859,12.507l-2.96,2.963l4.444,4.444l-2.963,2.96h8.886
	v-8.886l-2.954,2.963L20.859,12.507z M13.455-0.83H4.563v8.892L7.52,5.099l4.45,4.445l2.966-2.963l-4.445-4.444L13.455-0.83z"/>
</svg>
