<?xml version="1.0" encoding="utf-8"?>
<!-- Generator: Adobe Illustrator 16.0.0, SVG Export Plug-In . SVG Version: 6.00 Build 0)  -->
<!DOCTYPE svg PUBLIC "-//W3C//DTD SVG 1.1//EN" "http://www.w3.org/Graphics/SVG/1.1/DTD/svg11.dtd">
<svg version="1.1" id="Layer_1" xmlns="http://www.w3.org/2000/svg" xmlns:xlink="http://www.w3.org/1999/xlink" x="0px" y="0px"
	 width="23.704px" height="23.704px" viewBox="4.563 -0.83 23.704 23.704" enable-background="new 4.563 -0.83 23.704 23.704"
	 xml:space="preserve">
<path d="M26.785,9.541h-8.889V0.652l2.963,2.963l4.444-4.444l2.963,2.963l-4.444,4.454L26.785,9.541z M7.526-0.83L4.563,2.133
	l4.444,4.444L6.044,9.541h8.889V0.652l-2.956,2.963L7.526-0.83z M9.007,15.461l-4.444,4.45l2.963,2.963l4.444-4.444l2.963,2.963
	v-8.889H6.044L9.007,15.461z M26.785,12.504h-8.889v8.889l2.955-2.963l4.452,4.444l2.963-2.963l-4.444-4.444L26.785,12.504z"/>
</svg>
