<?xml version="1.0" encoding="utf-8"?>
<!-- Generator: Adobe Illustrator 16.0.0, SVG Export Plug-In . SVG Version: 6.00 Build 0)  -->
<!DOCTYPE svg PUBLIC "-//W3C//DTD SVG 1.1//EN" "http://www.w3.org/Graphics/SVG/1.1/DTD/svg11.dtd">
<svg version="1.1" id="Layer_1" xmlns="http://www.w3.org/2000/svg" xmlns:xlink="http://www.w3.org/1999/xlink" x="0px" y="0px"
	 width="93.26px" height="93.654px" viewBox="18.835 0 93.26 93.654" enable-background="new 18.835 0 93.26 93.654"
	 xml:space="preserve">
<path d="M65.659,0c-0.204,0-0.417,0.134-0.603,0.394L55.89,16.228c-0.296,0.519-0.083,0.973,0.51,0.973h6.296v26.667H36.03V37.64
	c0-0.593-0.454-0.88-0.973-0.51l-15.833,9.097c-0.519,0.37-0.519,0.833,0,1.204l15.833,9.259c0.519,0.296,0.973,0.06,0.973-0.533
	v-6.366h26.667v26.667H56.47c-0.593,0-0.88,0.453-0.51,0.973l9.259,15.832c0.223,0.52,0.672,0.52,1.042,0l9.259-15.832
	c0.297-0.52,0.061-0.973-0.532-0.973h-6.366V49.792h26.667v6.227c0,0.593,0.454,0.88,0.973,0.51l11.528-6.736h0.092v-0.07
	l4.214-2.454c0.519-0.222,0.519-0.671,0-1.042l-15.833-9.259c-0.519-0.296-0.973-0.06-0.973,0.533v6.366H68.622V17.199h6.296
	c0.594,0,0.881-0.454,0.51-0.973L66.262,0.394C66.076,0.134,65.863,0,65.659,0L65.659,0z"/>
</svg>
