<svg xmlns="http://www.w3.org/2000/svg" version="1.1" width="128" height="128" data-icon="move" viewBox="6.4 -12.8 128.0 172.8">
  <path d="M64 .781c-.275 0-.563.181-.813.531l-12.375 21.375c-.4.7-.112 1.313.688 1.313h8.5v36h-36v-8.406c0-.8-.613-1.188-1.313-.688l-21.375 12.281c-.7.5-.7 1.125 0 1.625l21.375 12.5c.7.4 1.313.081 1.313-.719v-8.594h36v36h-8.406c-.8 0-1.188.612-.688 1.313l12.5 21.375c.3.7.906.7 1.406 0l12.5-21.375c.4-.7.081-1.313-.719-1.313h-8.594v-36h36v8.406c0 .8.612 1.188 1.313.688l15.563-9.094h.125v-.094l5.688-3.313c.7-.3.7-.906 0-1.406l-21.375-12.5c-.7-.4-1.313-.081-1.313.719v8.594h-36v-36h8.5c.8 0 1.188-.613.688-1.313l-12.375-21.375c-.25-.35-.537-.531-.813-.531z"/>
<text x="0.0" y="150.4" font-size="6.4" font-weight="bold" font-family="Helvetica Neue, Helvetica, Arial-Unicode, Arial, Sans-serif" fill="#000000">Created by useiconic.com</text><text x="0.0" y="156.8" font-size="6.4" font-weight="bold" font-family="Helvetica Neue, Helvetica, Arial-Unicode, Arial, Sans-serif" fill="#000000">from the Noun Project</text></svg>