<?xml version="1.0" encoding="utf-8"?>
<!-- Generator: Adobe Illustrator 16.0.0, SVG Export Plug-In . SVG Version: 6.00 Build 0)  -->
<!DOCTYPE svg PUBLIC "-//W3C//DTD SVG 1.1//EN" "http://www.w3.org/Graphics/SVG/1.1/DTD/svg11.dtd">
<svg version="1.1" id="Layer_1" xmlns="http://www.w3.org/2000/svg" xmlns:xlink="http://www.w3.org/1999/xlink" x="0px" y="0px"
	 width="63.777px" height="51.308px" viewBox="19.842 8.538 63.777 51.308" enable-background="new 19.842 8.538 63.777 51.308"
	 xml:space="preserve">
<g>
	<path d="M39.411,34.444c0,6.769,5.487,12.256,12.255,12.256c6.77,0,12.256-5.487,12.256-12.256c0-6.769-5.486-12.256-12.256-12.256
		C44.898,22.188,39.411,27.676,39.411,34.444z"/>
	<path d="M79.488,48.655c3.16-6.336,4.211-13.781,2.468-21.234c-1.394-5.958-4.388-11.129-8.418-15.161c0,0-4.983,4.919-5.394,5.269
		c3.098,3.074,5.396,7.028,6.464,11.589c1.335,5.707,0.515,11.409-1.929,16.248l-3.77-1.822l1.276,16.302l13.433-9.195
		L79.488,48.655z M23.566,19.53c-3.484,6.506-4.705,14.271-2.886,22.043c1.343,5.744,4.173,10.757,7.987,14.722
		c0,0,5.006-5.043,5.31-5.355c-2.837-2.994-4.943-6.758-5.95-11.063c-1.41-6.027-0.416-12.048,2.356-17.054l4.174,2.017L33.28,8.538
		l-13.433,9.195L23.566,19.53z"/>
</g>
</svg>
