<svg xmlns="http://www.w3.org/2000/svg" xmlns:xlink="http://www.w3.org/1999/xlink" viewBox="5.0 -10.0 100.0 135.0" version="1.1" xml:space="preserve" x="0px" y="0px" width="100px" height="100px">
	<g>
		<path d="M 33.9545 50 C 33.9545 59.1379 41.3621 66.5455 50.5 66.5455 C 59.6379 66.5455 67.0455 59.1379 67.0455 50 C 67.0455 40.8621 59.6379 33.4545 50.5 33.4545 C 41.3621 33.4545 33.9545 40.8621 33.9545 50 Z" fill="#000000"/>
		<path d="M 88.0587 69.1842 C 92.3261 60.6304 93.7439 50.5798 91.3904 40.5179 C 89.5091 32.4744 85.4677 25.4942 80.0262 20.0508 C 80.0262 20.0508 73.2985 26.6909 72.7456 27.1633 C 76.9261 31.3137 80.0313 36.6517 81.4715 42.8088 C 83.2737 50.5136 82.1667 58.2103 78.8672 64.7436 L 73.7783 62.2842 L 75.5017 84.2917 L 93.6354 71.8783 L 88.0587 69.1842 ZM 12.5643 29.865 C 7.8605 38.649 6.2129 49.1304 8.6673 59.624 C 10.4811 67.3782 14.3018 74.145 19.4498 79.4987 C 19.4498 79.4987 26.2076 72.6909 26.6182 72.2688 C 22.7881 68.2266 19.9456 63.1447 18.5863 57.3331 C 16.6831 49.1963 18.0245 41.0687 21.7665 34.3106 L 27.4016 37.0337 L 25.6782 15.0261 L 7.5445 27.4396 L 12.5643 29.865 Z" fill="#000000"/>
	</g>
<text x="0.0" y="117.5" font-size="5.0" font-weight="bold" font-family="Helvetica Neue, Helvetica, Arial-Unicode, Arial, Sans-serif" fill="#000000">Created by Roberto Chiaveri</text><text x="0.0" y="122.5" font-size="5.0" font-weight="bold" font-family="Helvetica Neue, Helvetica, Arial-Unicode, Arial, Sans-serif" fill="#000000">from the Noun Project</text></svg>