<?xml version="1.0" encoding="utf-8"?>
<!-- Generator: Adobe Illustrator 16.0.0, SVG Export Plug-In . SVG Version: 6.00 Build 0)  -->
<!DOCTYPE svg PUBLIC "-//W3C//DTD SVG 1.1//EN" "http://www.w3.org/Graphics/SVG/1.1/DTD/svg11.dtd">
<svg version="1.1" id="Layer_1" xmlns="http://www.w3.org/2000/svg" xmlns:xlink="http://www.w3.org/1999/xlink" x="0px" y="0px"
	 width="45.121px" height="63.406px" viewBox="23.604 0 45.121 63.406" enable-background="new 23.604 0 45.121 63.406"
	 xml:space="preserve">
<g>
	<g>
		<path d="M43.928,63.406l-0.227-0.004c-3.005-0.096-11.584-5.754-12.931-8.527c-0.056-0.127-3.668-8.52-5.421-10.871
			c-1.235-1.655-2.267-4.254-1.461-6.583l4.819-13.924c0.596-1.722,1.684-4.012,4.245-4.012c0.534,0,1.111,0.106,1.718,0.316
			c0.184,0.062,0.344,0.18,0.462,0.334c0.323,0.425,3.12,4.22,2.139,7.204l-1.333,5.93c0.571,1.318,1.315,1.318,1.606,1.318
			c0.357,0,0.659-0.103,0.932-0.318l0.542-21.256c0.106-3.401,2.434-5.847,5.514-5.746l0.096,0.003
			c3.089,0.097,5.251,2.665,5.144,6.105l0.009,11.247l2.609-6.453c0.986-2.577,3.081-4.253,5.331-4.253
			c0.579,0,1.161,0.11,1.728,0.327l0.088,0.034c3.098,1.187,3.962,5.151,2.827,8.11l-0.263,0.741
			c1.211-0.101,2.408,0.273,3.41,1.079l0.076,0.061c2.393,1.922,2.528,5.046,0.338,7.774l-1.15,1.561
			c0.775,0.074,1.519,0.392,2.215,0.951l0.076,0.061c1.574,1.264,2.825,3.549-0.133,7.252L54.27,60.216
			c-0.015,0.02-0.027,0.039-0.043,0.057C52.396,62.555,45.248,63.406,43.928,63.406z M32.955,21.457
			c-0.719,0-1.564,0.319-2.383,2.685l-4.819,13.924c-0.555,1.604,0.288,3.566,1.178,4.761c1.891,2.536,5.481,10.876,5.633,11.23
			c1.022,2.104,8.886,7.303,11.199,7.376l0.166,0.004c1.916,0,7.623-1.051,8.742-2.374l12.662-18.344
			c0.014-0.02,0.027-0.04,0.043-0.057c2.098-2.613,1.408-3.748,0.457-4.511l-0.075-0.061c-0.943-0.759-1.845-0.704-2.952,0.116
			c-0.391,0.291-0.938,0.25-1.282-0.096c-0.345-0.344-0.386-0.889-0.097-1.281l2.938-3.99c1.199-1.495,1.807-3.577-0.011-5.036
			l-0.074-0.061c-0.975-0.782-2.132-0.865-3.295-0.262c-0.357,0.185-0.795,0.134-1.102-0.133c-0.305-0.266-0.416-0.692-0.281-1.073
			l0.916-2.572c0.785-2.05,0.281-4.833-1.683-5.586l-0.089-0.034c-0.342-0.131-0.688-0.197-1.024-0.197
			c-1.427,0-2.799,1.18-3.497,3.004l-4.513,11.157c-0.177,0.436-0.638,0.687-1.101,0.598c-0.463-0.09-0.797-0.495-0.798-0.967
			l-0.011-16.332c0.061-1.943-0.926-4.032-3.234-4.105l-0.218-0.005c-2.239,0-3.302,1.925-3.361,3.833l-0.552,21.655
			c-0.006,0.234-0.096,0.459-0.252,0.633c-0.705,0.786-1.618,1.201-2.64,1.201c-0.935,0-2.641-0.373-3.559-2.867
			c-0.065-0.179-0.078-0.371-0.037-0.556l1.411-6.277c0.008-0.036,0.018-0.071,0.03-0.106c0.54-1.561-0.898-4.103-1.647-5.175
			C33.456,21.497,33.192,21.457,32.955,21.457z"/>
	</g>
	<g>
		<path d="M44.495,8.253l0.097,0.003c0.579,0.018,0.834,0.145,1.575,0.351V6.584c0-0.792-0.632-1.51-1.424-1.51h-0.087
			c-0.792,0-1.451,0.718-1.451,1.51v1.818C43.944,8.294,44.038,8.238,44.495,8.253z"/>
	</g>
	<g>
		<g>
			<path d="M35.796,23.29V11.106c0-4.959,3.929-8.995,8.889-8.995c4.959,0,8.889,4.035,8.889,8.995v6.838
				c0.74-0.771,0.74-1.445,1.481-1.963v-5.725c0-5.614-4.757-10.182-10.371-10.182c-5.615,0-10.37,4.568-10.37,10.182v10.48
				C34.315,20.756,35.056,21.867,35.796,23.29z"/>
		</g>
		<g>
			<path d="M35.947,34.975c0.417,0.367,0.938,0.599,1.6,0.599c0.412,0,0.773-0.089,1.092-0.244
				c-1.636-1.555-2.678-3.728-2.787-6.155l-0.871,3.866C35.235,33.723,35.559,34.37,35.947,34.975z"/>
		</g>
	</g>
</g>
</svg>
