<svg xmlns="http://www.w3.org/2000/svg" xmlns:xlink="http://www.w3.org/1999/xlink" version="1.1" id="Layer_1" x="0px" y="0px" width="90px" height="90px" viewBox="4.5 -9.0 90.0 121.5" enable-background="new 0 0 90 90" xml:space="preserve">
<g>
	<g>
		<path d="M41.978,88.749l-0.306-0.006c-4.057-0.129-15.638-7.768-17.457-11.512c-0.075-0.171-4.952-11.502-7.318-14.676    c-1.667-2.234-3.06-5.743-1.972-8.887l6.506-18.797c0.804-2.325,2.273-5.416,5.731-5.416c0.72,0,1.5,0.144,2.319,0.427    c0.248,0.085,0.464,0.243,0.623,0.451c0.437,0.574,4.212,5.697,2.888,9.725l-1.799,8.005c0.771,1.779,1.776,1.779,2.169,1.779    c0.482,0,0.89-0.138,1.258-0.429l0.731-28.696c0.143-4.591,3.286-7.893,7.444-7.757l0.129,0.004    c4.17,0.131,7.089,3.598,6.944,8.242L49.88,36.39l3.523-8.712c1.33-3.479,4.159-5.742,7.196-5.742    c0.783,0,1.567,0.148,2.332,0.441l0.12,0.046c4.18,1.602,5.348,6.954,3.816,10.949l-0.355,1.001    c1.635-0.137,3.251,0.369,4.604,1.456l0.102,0.082c3.23,2.595,3.414,6.812,0.456,10.495l-1.552,2.107    c1.047,0.099,2.05,0.529,2.99,1.284l0.102,0.082c2.126,1.707,3.815,4.791-0.179,9.791L55.938,84.441    c-0.019,0.027-0.037,0.053-0.058,0.077C53.409,87.598,43.76,88.749,41.978,88.749z M27.164,32.117    c-0.971,0-2.112,0.431-3.217,3.625l-6.506,18.797c-0.75,2.165,0.388,4.814,1.59,6.427c2.553,3.424,7.399,14.683,7.604,15.16    c1.38,2.84,11.996,9.859,15.119,9.958l0.224,0.005c2.586,0,10.291-1.418,11.802-3.204L70.873,58.12    c0.019-0.027,0.037-0.053,0.058-0.077c2.833-3.528,1.902-5.059,0.618-6.09l-0.102-0.082c-1.274-1.024-2.491-0.95-3.986,0.157    c-0.528,0.393-1.265,0.337-1.731-0.129c-0.466-0.464-0.521-1.2-0.131-1.729l3.968-5.386c1.619-2.018,2.439-4.829-0.014-6.799    l-0.101-0.082c-1.315-1.056-2.878-1.167-4.449-0.354c-0.482,0.25-1.073,0.181-1.486-0.179c-0.411-0.359-0.562-0.934-0.379-1.448    l1.235-3.473c1.06-2.767,0.381-6.525-2.271-7.541l-0.12-0.046c-0.462-0.177-0.927-0.266-1.383-0.266    c-1.925,0-3.778,1.592-4.721,4.055l-6.092,15.062c-0.238,0.589-0.86,0.928-1.486,0.807c-0.625-0.122-1.076-0.668-1.077-1.305    l-0.015-22.048c0.082-2.623-1.25-5.444-4.365-5.542l-0.294-0.007c-3.023,0-4.458,2.599-4.538,5.175l-0.745,29.234    c-0.008,0.316-0.129,0.62-0.34,0.855c-0.952,1.061-2.184,1.621-3.564,1.621c-1.262,0-3.565-0.503-4.805-3.871    c-0.088-0.241-0.105-0.501-0.049-0.751l1.904-8.474c0.011-0.048,0.024-0.096,0.041-0.144c0.729-2.107-1.213-5.539-2.224-6.986    C27.841,32.171,27.484,32.117,27.164,32.117z"/>
	</g>
	<g>
		<path d="M42.743,14.292l0.13,0.004C43.655,14.32,44,14.491,45,14.77v-2.731C45,10.969,44.146,10,43.077,10h-0.118    C41.889,10,41,10.969,41,12.039v2.454C42,14.347,42.126,14.272,42.743,14.292z"/>
	</g>
	<g>
		<g>
			<path d="M31,34.591V18.143C31,11.448,36.304,6,43,6c6.695,0,12,5.448,12,12.143v9.231c1-1.04,1-1.951,2-2.65v-7.728     c0-7.579-6.421-13.746-14-13.746c-7.58,0-14,6.167-14,13.746v14.148C29,31.171,30,32.67,31,34.591z"/>
		</g>
		<g>
			<path d="M31.204,50.366c0.562,0.495,1.267,0.808,2.16,0.808c0.556,0,1.044-0.12,1.474-0.329     c-2.209-2.099-3.616-5.033-3.763-8.309L29.9,47.755C30.242,48.676,30.679,49.549,31.204,50.366z"/>
		</g>
	</g>
</g>
<text x="0.0" y="105.75" font-size="4.5" font-weight="bold" font-family="Helvetica Neue, Helvetica, Arial-Unicode, Arial, Sans-serif" fill="#000000">Created by Rafael Mayrink</text><text x="0.0" y="110.25" font-size="4.5" font-weight="bold" font-family="Helvetica Neue, Helvetica, Arial-Unicode, Arial, Sans-serif" fill="#000000">from the Noun Project</text></svg>