<?xml version="1.0" encoding="utf-8"?>
<!-- Generator: Adobe Illustrator 16.0.0, SVG Export Plug-In . SVG Version: 6.00 Build 0)  -->
<!DOCTYPE svg PUBLIC "-//W3C//DTD SVG 1.1//EN" "http://www.w3.org/Graphics/SVG/1.1/DTD/svg11.dtd">
<svg version="1.1" id="Your_Icon" xmlns="http://www.w3.org/2000/svg" xmlns:xlink="http://www.w3.org/1999/xlink" x="0px" y="0px"
	 width="100px" height="100px" viewBox="0 0 100 100" enable-background="new 0 0 100 100" xml:space="preserve">
<g>
	<polygon points="31.296,47.778 24.629,47.778 24.629,54.444 24.629,61.111 31.296,61.111 37.963,61.111 37.963,54.444 
		31.296,54.444 	"/>
	<rect x="24.629" y="27.778" width="6.667" height="13.333"/>
	<polygon points="71.297,54.444 64.63,54.444 64.63,61.111 71.297,61.111 77.963,61.111 77.963,54.444 77.963,47.778 71.297,47.778 
			"/>
	<rect x="71.297" y="27.778" width="6.666" height="13.333"/>
	<rect x="44.63" y="54.444" width="13.333" height="6.667"/>
	<polygon points="24.629,7.778 24.629,14.444 24.629,21.111 31.296,21.111 31.296,14.444 37.963,14.444 37.963,7.778 31.296,7.778 	
		"/>
	<rect x="44.63" y="7.778" width="13.333" height="6.667"/>
	<polygon points="71.297,7.778 64.63,7.778 64.63,14.444 71.297,14.444 71.297,21.111 77.963,21.111 77.963,14.444 77.963,7.778 	
		"/>
</g>
<text transform="matrix(1 0 0 1 14.2593 84.4443)" font-family="'HelveticaNeue-Bold'" font-size="3.7037">Created by Alex Fuller</text>
<text transform="matrix(1 0 0 1 14.2593 88.1484)" font-family="'HelveticaNeue-Bold'" font-size="3.7037">from the Noun Project</text>
<path d="M68.54,34.371c-0.312-0.348-7.766-8.524-17.245-8.524c-9.476,0-16.93,8.177-17.243,8.524l-1.075,1.197l1.076,1.198
	c0.312,0.347,7.767,8.523,17.242,8.523c9.479,0,16.933-8.177,17.245-8.523l1.076-1.198L68.54,34.371z M46.437,40.832
	c-3.771-1.31-6.875-3.784-8.497-5.264c1.623-1.48,4.727-3.956,8.497-5.264c-1.418,1.31-2.312,3.181-2.312,5.264
	C44.125,37.652,45.019,39.522,46.437,40.832z M48.84,40.422c-1.114,0-2.019-0.903-2.019-2.018c0-1.116,0.905-2.02,2.019-2.02
	c1.115,0,2.019,0.903,2.019,2.02C50.858,39.519,49.955,40.422,48.84,40.422z M56.146,40.841c1.425-1.312,2.321-3.185,2.321-5.272
	c0-2.083-0.893-3.954-2.312-5.264c3.772,1.309,6.879,3.787,8.499,5.267C63.036,37.054,59.932,39.534,56.146,40.841z"/>
</svg>
