<?xml version="1.0" encoding="utf-8"?>
<!-- Generator: Adobe Illustrator 16.0.0, SVG Export Plug-In . SVG Version: 6.00 Build 0)  -->
<!DOCTYPE svg PUBLIC "-//W3C//DTD SVG 1.1//EN" "http://www.w3.org/Graphics/SVG/1.1/DTD/svg11.dtd">
<svg version="1.1" id="Your_Icon" xmlns="http://www.w3.org/2000/svg" xmlns:xlink="http://www.w3.org/1999/xlink" x="0px" y="0px"
	 width="53.333px" height="53.333px" viewBox="0 0 53.333 53.333" enable-background="new 0 0 53.333 53.333" xml:space="preserve">
<g>
	<polygon points="6.667,40 0,40 0,46.667 0,53.333 6.667,53.333 13.334,53.333 13.334,46.667 6.667,46.667 	"/>
	<rect y="20" width="6.667" height="13.333"/>
	<polygon points="46.668,46.667 40,46.667 40,53.333 46.668,53.333 53.334,53.333 53.334,46.667 53.334,40 46.668,40 	"/>
	<rect x="46.668" y="20" width="6.666" height="13.333"/>
	<rect x="20" y="46.667" width="13.334" height="6.666"/>
	<polygon points="0,0 0,6.666 0,13.333 6.667,13.333 6.667,6.666 13.334,6.666 13.334,0 6.667,0 	"/>
	<rect x="20" width="13.334" height="6.667"/>
	<polygon points="46.668,0 40,0 40,6.666 46.668,6.666 46.668,13.333 53.334,13.333 53.334,6.666 53.334,0 	"/>
</g>
<circle fill="none" stroke="#000000" stroke-width="6" stroke-miterlimit="10" cx="26.667" cy="25.667" r="12.041"/>
</svg>
