<?xml version="1.0" encoding="utf-8"?>
<!-- Generator: Adobe Illustrator 16.0.0, SVG Export Plug-In . SVG Version: 6.00 Build 0)  -->
<!DOCTYPE svg PUBLIC "-//W3C//DTD SVG 1.1//EN" "http://www.w3.org/Graphics/SVG/1.1/DTD/svg11.dtd">
<svg version="1.1" id="Your_Icon" xmlns="http://www.w3.org/2000/svg" xmlns:xlink="http://www.w3.org/1999/xlink" x="0px" y="0px"
	 width="53.333px" height="53.333px" viewBox="24.629 7.778 53.333 53.333" enable-background="new 24.629 7.778 53.333 53.333"
	 xml:space="preserve">
<g>
	<polygon points="31.296,47.778 24.629,47.778 24.629,54.444 24.629,61.111 31.296,61.111 37.963,61.111 37.963,54.444 
		31.296,54.444 	"/>
	<rect x="24.629" y="27.778" width="6.667" height="13.333"/>
	<polygon points="71.297,54.444 64.63,54.444 64.63,61.111 71.297,61.111 77.963,61.111 77.963,54.444 77.963,47.778 71.297,47.778 
			"/>
	<rect x="71.297" y="27.778" width="6.666" height="13.333"/>
	<rect x="44.63" y="54.444" width="13.333" height="6.667"/>
	<polygon points="24.629,7.778 24.629,14.444 24.629,21.111 31.296,21.111 31.296,14.444 37.963,14.444 37.963,7.778 31.296,7.778 	
		"/>
	<rect x="44.63" y="7.778" width="13.333" height="6.667"/>
	<polygon points="71.297,7.778 64.63,7.778 64.63,14.444 71.297,14.444 71.297,21.111 77.963,21.111 77.963,14.444 77.963,7.778 	
		"/>
</g>
<path id="Eye_Off" d="M55.072,37.529l-2.527,2.529C53.683,39.679,54.567,38.794,55.072,37.529z M46.853,36.138
	c0,0.253,0,0.632,0.127,0.885l4.932-4.933c-0.253,0-0.506-0.126-0.886-0.126C48.75,31.965,46.853,33.862,46.853,36.138z
	 M42.807,41.196c-3.541-2.149-6.07-4.932-6.07-4.932s2.529-2.15,6.07-3.921c-0.506,1.139-0.885,2.529-0.885,3.794
	c0,1.643,0.506,3.288,1.265,4.679l1.771-1.771c-0.38-0.885-0.633-1.897-0.633-2.909c0-2.276,1.139-4.173,2.782-5.438
	c1.265-0.379,2.529-0.506,3.92-0.506c0.886,0,1.771,0.127,2.656,0.253l3.162-3.162c-1.897-0.632-3.921-1.138-5.945-1.138
	c-10.116,0-17.704,10.117-17.704,10.117s3.035,3.92,7.714,6.955L42.807,41.196z M59.373,32.344c0.127,0.253,0.127,0.38,0.253,0.633
	l0.379-0.38C59.879,32.47,59.626,32.344,59.373,32.344z M62.535,30.194l-2.403,2.402c3.542,1.645,6.07,3.668,6.07,3.668
	s-3.161,2.908-7.461,5.058c1.012-1.518,1.644-3.288,1.644-5.185c0-1.139-0.253-2.15-0.632-3.162l-2.023,1.896
	c0.126,0.379,0.126,0.886,0.126,1.265c0,3.793-3.035,6.829-6.829,6.829c-0.506,0-0.885,0-1.391-0.127l-3.035,3.036
	c1.265,0.379,2.656,0.506,4.047,0.506c10.117,0,18.969-10.117,18.969-10.117S66.834,32.977,62.535,30.194z M62.535,23.998
	L38.507,48.025l1.771,1.771l24.028-24.029L62.535,23.998z"/>
</svg>
