<svg xmlns="http://www.w3.org/2000/svg" xmlns:xlink="http://www.w3.org/1999/xlink" version="1.1" id="Your_Icon" x="0px" y="0px" width="100px" height="100px" viewBox="5.0 -10.0 100.0 135.0" enable-background="new 0 0 100 100" xml:space="preserve">
<g>
	<polygon points="23,68 14,68 14,77 14,86 23,86 32,86 32,77 23,77  "/>
	<rect x="14" y="41" width="9" height="18"/>
	<polygon points="77,77 68,77 68,86 77,86 86,86 86,77 86,68 77,68  "/>
	<rect x="77" y="41" width="9" height="18"/>
	<rect x="41" y="77" width="18" height="9"/>
	<polygon points="14,14 14,23 14,32 23,32 23,23 32,23 32,14 23,14  "/>
	<rect x="41" y="14" width="18" height="9"/>
	<polygon points="77,14 68,14 68,23 77,23 77,32 86,32 86,23 86,14  "/>
</g>
<text x="0.0" y="117.5" font-size="5.0" font-weight="bold" font-family="Helvetica Neue, Helvetica, Arial-Unicode, Arial, Sans-serif" fill="#000000">Created by Alex Fuller</text><text x="0.0" y="122.5" font-size="5.0" font-weight="bold" font-family="Helvetica Neue, Helvetica, Arial-Unicode, Arial, Sans-serif" fill="#000000">from the Noun Project</text></svg>