<?xml version="1.0" encoding="utf-8"?>
<!-- Generator: Adobe Illustrator 16.0.0, SVG Export Plug-In . SVG Version: 6.00 Build 0)  -->
<!DOCTYPE svg PUBLIC "-//W3C//DTD SVG 1.1//EN" "http://www.w3.org/Graphics/SVG/1.1/DTD/svg11.dtd">
<svg version="1.1" id="Layer_1" xmlns="http://www.w3.org/2000/svg" xmlns:xlink="http://www.w3.org/1999/xlink" x="0px" y="0px"
	 width="74.075px" height="68.377px" viewBox="14.259 0 74.075 68.377" enable-background="new 14.259 0 74.075 68.377"
	 xml:space="preserve">
<path fill="#010101" d="M54.883,0.014C54.809,0.007,54.734,0,54.66,0c-1.97,0-3.332,1.596-3.332,3.565
	c0,1.94,0.755,3.519,3.718,3.56v0.011C69.119,7.328,81.43,19.349,81.43,34.104c0,14.874-12.215,27.146-27.088,27.146
	c-14.195,0-25.979-10.711-27.018-24.783h6.263l-9.666-16.069l-9.662,16.07h5.926c1.047,17.776,15.914,31.908,34.039,31.908
	c18.807,0,34.11-15.377,34.11-34.187C88.334,15.606,73.385,0.366,54.883,0.014z"/>
<path fill="#010101" d="M58.009,16.625c0-1.678-1.347-3.119-3.021-3.119h-0.652c-1.675,0-2.992,1.441-2.992,3.119v17.929
	l-8.781,8.766c-1.296,1.297-1.229,3.4-0.004,4.689c1.23,1.304,3.385,1.304,4.681,0l9.704-9.704c0.073-0.081,0.134-0.163,0.207-0.237
	c0.534-0.552,0.858-1.3,0.858-2.126L58.009,16.625L58.009,16.625z"/>
</svg>
