<?xml version="1.0" encoding="utf-8"?>
<!-- Generator: Adobe Illustrator 16.0.0, SVG Export Plug-In . SVG Version: 6.00 Build 0)  -->
<!DOCTYPE svg PUBLIC "-//W3C//DTD SVG 1.1//EN" "http://www.w3.org/Graphics/SVG/1.1/DTD/svg11.dtd">
<svg version="1.1" id="Layer_1" xmlns="http://www.w3.org/2000/svg" xmlns:xlink="http://www.w3.org/1999/xlink" x="0px" y="0px"
	 width="14.376px" height="14.374px" viewBox="2.767 0 14.376 14.374" enable-background="new 2.767 0 14.376 14.374"
	 xml:space="preserve">
<path d="M16.862,12.745L13.17,9.052c1.834-2.579,1.229-6.157-1.351-7.991C9.238-0.773,5.661-0.169,3.827,2.411
	c-1.833,2.579-1.229,6.157,1.351,7.99c1.988,1.413,4.653,1.413,6.641,0l3.693,3.692c0.372,0.374,0.978,0.374,1.35,0
	C17.237,13.722,17.237,13.116,16.862,12.745z M8.499,9.824c-2.261,0-4.094-1.833-4.094-4.093c0-2.261,1.833-4.094,4.094-4.094
	c2.259,0,4.091,1.833,4.091,4.094C12.59,7.992,10.758,9.824,8.499,9.824z"/>
<polygon points="10.077,4.823 8.506,2.103 6.936,4.823 7.973,4.823 7.973,6.728 6.936,6.728 8.506,9.448 10.077,6.728 9.023,6.728 
	9.023,4.823 "/>
</svg>
